<?xml version="1.0" encoding="UTF-8" standalone="no"?>
<!-- Uploaded to: SVG Repo, www.svgrepo.com, Generator: SVG Repo Mixer Tools -->

<svg
   fill="#000000"
   version="1.1"
   id="Capa_1"
   width="800px"
   height="800px"
   viewBox="0 0 425.466 425.467"
   xml:space="preserve"
   sodipodi:docname="url-link.svg"
   inkscape:version="1.4.4 (dcaf3e7, 2026-05-05)"
   xmlns:inkscape="http://www.inkscape.org/namespaces/inkscape"
   xmlns:sodipodi="http://sodipodi.sourceforge.net/DTD/sodipodi-0.dtd"
   xmlns="http://www.w3.org/2000/svg"
   xmlns:svg="http://www.w3.org/2000/svg"><defs
   id="defs4" /><sodipodi:namedview
   id="namedview4"
   pagecolor="#505050"
   bordercolor="#eeeeee"
   borderopacity="1"
   inkscape:showpageshadow="0"
   inkscape:pageopacity="0"
   inkscape:pagecheckerboard="0"
   inkscape:deskcolor="#505050"
   inkscape:zoom="1"
   inkscape:cx="400"
   inkscape:cy="385.5"
   inkscape:window-width="2560"
   inkscape:window-height="1440"
   inkscape:window-x="0"
   inkscape:window-y="0"
   inkscape:window-maximized="0"
   inkscape:current-layer="g2" />
<g
   id="g4">
	<g
   id="g3">
		<g
   id="g2">
			<path
   d="M318.15,230.195l77.934-77.937c31.894-31.892,31.894-83.782-0.004-115.674l-12.66-12.66     c-31.893-31.896-83.78-31.896-115.674-0.004l-77.937,77.934c-17.588,17.588-25.457,41.264-23.646,64.311     c-23.045-1.813-46.722,6.056-64.308,23.647L23.92,267.748c-31.894,31.889-31.894,83.779,0,115.674l12.664,12.662     c31.893,31.893,83.783,31.893,115.674,0l77.935-77.936c17.592-17.59,25.459-41.266,23.647-64.309     C276.884,255.654,300.56,247.783,318.15,230.195z M202.653,290.605l-77.936,77.938c-16.705,16.703-43.889,16.703-60.59,0     l-12.666-12.666c-16.705-16.701-16.703-43.885,0-60.594l77.936-77.932c14.14-14.141,35.779-16.306,52.226-6.516l-32.302,32.307     c-7.606,7.604-7.606,19.938,0,27.541c7.605,7.607,19.937,7.607,27.541,0l32.306-32.303     C218.959,254.828,216.795,276.469,202.653,290.605z M238.382,209.169l32.299-32.306c7.608-7.602,7.608-19.935,0-27.538     c-7.604-7.61-19.936-7.61-27.541-0.004l-32.303,32.303c-9.791-16.446-7.627-38.087,6.514-52.226l77.935-77.935     c16.707-16.707,43.89-16.707,60.594,0l12.664,12.664c16.705,16.705,16.705,43.886,0,60.591l-77.936,77.937     C276.468,216.797,254.828,218.959,238.382,209.169z"
   id="path1" />
			
		</g>
	</g>
<path
   style="fill:#ffffff;fill-rule:evenodd;stroke:#000000;stroke-width:1.00157"
   d="m 169.27315,715.40937 c -13.87744,-1.34515 -29.62389,-7.6027 -40.31954,-16.02275 -7.82103,-6.15704 -24.94819,-22.90461 -34.078324,-33.32305 C 86.37413,656.36285 79.217552,643.56454 76.386759,633 c -0.884243,-3.3 -1.837042,-11.24763 -2.117331,-17.66139 -0.560223,-12.81939 0.973074,-22.44124 5.274721,-33.10028 5.694426,-14.11021 6.397832,-14.88263 88.849971,-97.56752 43.50823,-43.63105 81.80588,-81.2655 85.10588,-83.63209 8.25134,-5.91745 17.29302,-10.29019 26.35647,-12.7465 10.27828,-2.78555 29.74737,-2.98893 39.14353,-0.40891 7.39331,2.03008 21,7.48957 21,8.42595 0,0.34244 -14.37551,15.04258 -31.94558,32.66697 -36.74332,36.85691 -37.25666,37.56882 -37.87394,52.52377 -0.28152,6.82067 0.0676,9.61524 1.76684,14.14482 3.97398,10.59294 11.14356,17.88315 21.87695,22.24502 6.8007,2.7637 18.83398,2.59488 26.67573,-0.37423 5.57367,-2.11035 8.36507,-4.62523 39.2854,-35.39369 26.45176,-26.32185 33.48119,-32.81396 34.23907,-31.62192 0.52452,0.825 2.27074,4.65 3.88048,8.5 7.88465,18.85755 8.02301,41.16912 0.37381,60.2765 -5.99231,14.9685 -8.32968,17.56092 -86.62964,96.08229 -40.78202,40.89733 -77.52094,77.26952 -81.64206,80.82708 -16.49237,14.23707 -38.92501,21.33745 -60.73391,19.2235 z"
   id="path4"
   transform="matrix(0.53183375,0,0,0.53183375,-5e-4,0)" /><path
   style="fill:#ffffff;fill-rule:evenodd;stroke:#000000;stroke-width:1.00157"
   d="m 480.26897,403.47346 c -9.56323,-1.30164 -17.52995,-3.59261 -24.7716,-7.1235 l -6.59281,-3.21453 32.49769,-32.56771 c 36.49432,-36.57297 37.50426,-37.93056 38.38103,-51.59241 1.64128,-25.57466 -22.44516,-45.0487 -46.85178,-37.87996 -2.98732,0.87744 -7.0065,2.52176 -8.9315,3.65404 -1.925,1.13229 -17.93429,16.41453 -35.5762,33.96055 l -32.0762,31.90184 -3.09687,-6.80589 c -5.01343,-11.01785 -6.4037,-16.98197 -6.97531,-29.92322 -0.78115,-17.68542 2.45923,-30.77055 11.30332,-45.64434 5.13834,-8.64155 159.46682,-163.533784 170.02362,-170.644712 15.68835,-10.56747 34.47157,-15.372872 52.33847,-13.390005 12.24099,1.358503 24.63336,5.586054 34.75308,11.855712 10.52758,6.522348 40.94474,36.691235 48.12622,47.733415 9.25333,14.22782 12.66591,26.17718 12.62503,44.20726 -0.0406,17.90809 -3.68881,29.99908 -13.46834,44.6372 C 697.04305,230.02215 552.00351,376.09592 540,385.76904 c -16.90898,13.62623 -39.81398,20.41532 -59.73103,17.70442 z"
   id="path5"
   transform="matrix(0.53183375,0,0,0.53183375,-5e-4,0)" /></g>
</svg>
